<svg width="45" height="47" viewBox="0 0 45 47" fill="none" xmlns="http://www.w3.org/2000/svg">
<path d="M22.5105 3.91666C18.6446 3.91645 14.9349 5.54552 12.1876 8.44979C9.44033 11.3541 7.87753 15.2988 7.83887 19.4267C7.83887 30.1583 20.7683 42.1042 21.3184 42.6133C21.6506 42.9167 22.0734 43.0835 22.5105 43.0835C22.9476 43.0835 23.3704 42.9167 23.7026 42.6133C24.3445 42.1042 37.1822 30.1583 37.1822 19.4267C37.1435 15.2988 35.5807 11.3541 32.8334 8.44979C30.0861 5.54552 26.3764 3.91645 22.5105 3.91666ZM22.5105 38.4812C19.4478 35.3675 11.5068 26.7312 11.5068 19.4267C11.5068 16.3104 12.6661 13.3217 14.7297 11.1182C16.7933 8.9146 19.5921 7.67666 22.5105 7.67666C25.4289 7.67666 28.2277 8.9146 30.2913 11.1182C32.3549 13.3217 33.5142 16.3104 33.5142 19.4267C33.5142 26.6725 25.5732 35.3675 22.5105 38.4812Z" fill="#D8C4B9"/>
<path d="M22.5105 11.75C21.241 11.75 20 12.152 18.9444 12.9051C17.8888 13.6582 17.0661 14.7287 16.5803 15.9812C16.0945 17.2336 15.9673 18.6117 16.215 19.9413C16.4627 21.2709 17.074 22.4922 17.9717 23.4508C18.8694 24.4093 20.0131 25.0621 21.2583 25.3266C22.5034 25.5911 23.794 25.4553 24.9669 24.9366C26.1398 24.4178 27.1423 23.5393 27.8476 22.4121C28.5529 21.2849 28.9294 19.9598 28.9294 18.6041C28.9294 16.7863 28.2531 15.0429 27.0493 13.7575C25.8456 12.4721 24.2129 11.75 22.5105 11.75ZM22.5105 21.5416C21.9664 21.5416 21.4346 21.3694 20.9822 21.0466C20.5298 20.7238 20.1772 20.265 19.969 19.7283C19.7608 19.1915 19.7063 18.6009 19.8124 18.0311C19.9186 17.4612 20.1806 16.9378 20.5653 16.527C20.95 16.1162 21.4402 15.8364 21.9738 15.7231C22.5075 15.6097 23.0606 15.6679 23.5633 15.8902C24.0659 16.1126 24.4956 16.4891 24.7978 16.9721C25.1001 17.4552 25.2615 18.0232 25.2615 18.6041C25.2615 19.3832 24.9716 20.1304 24.4557 20.6813C23.9398 21.2322 23.2401 21.5416 22.5105 21.5416Z" fill="#D8C4B9"/>
</svg>
