<svg width="34" height="33" viewBox="0 0 34 33" fill="none" xmlns="http://www.w3.org/2000/svg">
<g id="&#240;&#159;&#166;&#134; icon &#34;facebook&#34;">
<g id="Group">
<path id="Vector" d="M20.4049 12.45V16.8H24.4523C24.7636 16.8 24.9193 17.1 24.9193 17.4L24.2966 20.25C24.2966 20.4 23.9853 20.55 23.8296 20.55H20.4049V31.5H15.7349V20.7H13.0885C12.7772 20.7 12.6215 20.55 12.6215 20.25V17.4C12.6215 17.1 12.7772 16.95 13.0885 16.95H15.7349V12C15.7349 9.45 17.7586 7.5 20.4049 7.5H24.6079C24.9193 7.5 25.0749 7.65 25.0749 7.95V11.55C25.0749 11.85 24.9193 12 24.6079 12H20.8719C20.5606 12 20.4049 12.15 20.4049 12.45Z" stroke="#D8C4B9" stroke-width="2" stroke-miterlimit="10" stroke-linecap="round"/>
<path id="Vector_2" d="M21.9616 31.5H12.6215C4.83812 31.5 1.72477 28.5 1.72477 21V12C1.72477 4.5 4.83812 1.5 12.6215 1.5H21.9616C29.745 1.5 32.8583 4.5 32.8583 12V21C32.8583 28.5 29.745 31.5 21.9616 31.5Z" stroke="#D8C4B9" stroke-width="2" stroke-linecap="round" stroke-linejoin="round"/>
</g>
</g>
</svg>
