<svg width="34" height="33" viewBox="0 0 34 33" fill="none" xmlns="http://www.w3.org/2000/svg">
<g id="&#240;&#159;&#166;&#134; icon &#34;instagram&#34;">
<g id="Group">
<path id="Vector" d="M12.5042 31.9252H21.6293C29.2335 31.9252 32.2752 28.8401 32.2752 21.1276V11.8725C32.2752 4.15997 29.2335 1.07495 21.6293 1.07495H12.5042C4.90001 1.07495 1.85831 4.15997 1.85831 11.8725V21.1276C1.85831 28.8401 4.90001 31.9252 12.5042 31.9252Z" stroke="#D8C4B9" stroke-width="2" stroke-linecap="round" stroke-linejoin="round"/>
<path id="Vector_2" d="M17.0668 21.8989C20.0066 21.8989 22.3897 19.4818 22.3897 16.5001C22.3897 13.5184 20.0066 11.1013 17.0668 11.1013C14.127 11.1013 11.7438 13.5184 11.7438 16.5001C11.7438 19.4818 14.127 21.8989 17.0668 21.8989Z" stroke="#D8C4B9" stroke-width="2" stroke-linecap="round" stroke-linejoin="round"/>
<path id="Vector_3" d="M25.6384 8.78748H25.658" stroke="#D8C4B9" stroke-width="2" stroke-linecap="round" stroke-linejoin="round"/>
</g>
</g>
</svg>
